<?xml version="1.0" standalone="no"?>
<!DOCTYPE svg PUBLIC "-//W3C//DTD SVG 20010904//EN"
 "http://www.w3.org/TR/2001/REC-SVG-20010904/DTD/svg10.dtd">
<svg version="1.0" xmlns="http://www.w3.org/2000/svg"
 width="280.000000pt" height="280.000000pt" viewBox="0 0 280.000000 280.000000"
 preserveAspectRatio="xMidYMid meet">
<metadata>
Created by potrace 1.11, written by Peter Selinger 2001-2013
</metadata>
<g transform="translate(0.000000,280.000000) scale(0.100000,-0.100000)"
fill="#000000" stroke="none">
<path d="M0 1400 l0 -1400 1400 0 1400 0 0 1400 0 1400 -1400 0 -1400 0 0
-1400z m1731 534 l309 -177 0 -357 0 -357 -309 -177 c-170 -97 -314 -176 -321
-176 -7 0 -151 79 -321 176 l-309 177 0 357 0 357 308 176 c169 97 313 177
321 177 7 0 152 -79 322 -176z"/>
<path d="M1141 1881 c-133 -77 -247 -143 -252 -148 -5 -5 30 -31 80 -60 l89
-52 166 92 166 92 0 107 c0 60 -1 108 -2 108 -2 0 -113 -63 -247 -139z"/>
<path d="M1430 1913 l0 -109 165 -92 165 -92 91 54 91 54 -68 40 c-38 21 -150
86 -249 142 -99 56 -183 105 -187 107 -5 2 -8 -45 -8 -104z"/>
<path d="M1260 1689 c-80 -45 -148 -84 -152 -88 -8 -7 282 -181 302 -181 8 0
295 162 308 175 3 3 -303 175 -310 175 -2 0 -68 -37 -148 -81z"/>
<path d="M860 1396 c0 -163 2 -296 4 -296 2 0 43 23 90 51 l86 50 0 193 0 193
-47 26 c-27 15 -67 38 -90 52 l-43 26 0 -295z"/>
<path d="M1867 1637 l-87 -51 2 -195 3 -194 83 -50 c46 -27 86 -47 88 -44 2 2
3 135 2 295 l-3 290 -88 -51z"/>
<path d="M1082 1389 l3 -173 149 -83 c82 -46 150 -83 152 -83 2 0 4 75 4 168
l0 167 -97 55 c-53 30 -123 70 -155 89 l-58 33 2 -173z"/>
<path d="M1578 1472 l-148 -87 0 -168 0 -169 86 48 c48 25 117 63 153 84 l66
38 3 171 c1 94 -1 171 -5 170 -5 0 -74 -40 -155 -87z"/>
<path d="M980 1119 c-47 -28 -86 -52 -88 -54 -2 -1 404 -235 491 -282 4 -2 7
47 7 109 l-1 113 -150 83 c-82 45 -155 82 -162 82 -7 0 -50 -23 -97 -51z"/>
<path d="M1578 1087 l-148 -82 0 -113 0 -113 58 32 c344 197 425 245 425 254
0 12 -153 104 -173 104 -8 0 -81 -37 -162 -82z"/>
</g>
</svg>
